<svg width="1032" height="338" viewBox="0 0 1032 338" fill="none" xmlns="http://www.w3.org/2000/svg">
<path fill-rule="evenodd" clip-rule="evenodd" d="M6.89639 94.7035C2.5232 95.676 -0.387414 96.8813 0.0419006 97.5319C0.456662 98.162 1.59908 98.3812 2.58869 98.025C26.8486 89.259 64.119 98.9633 86.9527 119.988L93.9309 126.412V178.611C93.9309 242.329 93.5598 244.548 81.9974 250.301L77.5587 252.506H111.511L107.269 250.39C101.739 247.637 98.9298 244.623 96.8997 239.268C94.9277 234.063 94.3238 129.336 96.2666 129.336C99.4246 129.336 117.179 154.586 141.206 193.253C186.35 265.894 207.525 289.097 241.564 303.225C257.216 309.725 290.397 312.471 290.397 307.273C290.397 306.711 284.256 306.239 276.754 306.225C244.497 306.17 220.586 288.583 194.18 245.486L190.861 240.076L191.553 128.761L194.449 124.939C196.042 122.837 199.048 120.146 201.121 118.954L204.898 116.79L174.824 116.776L178.833 119.344C188.417 125.487 187.878 121.885 188.227 182.206L188.54 236.056L184.48 229.207C182.246 225.441 176.076 214.654 170.764 205.238C121.465 117.886 67.1751 81.2669 6.89639 94.7035ZM227.622 118.002C232.556 120.714 232.767 122.597 233.473 170.995C234.237 222.879 234.491 224.674 242.576 236.056C259.355 259.683 310.131 259.84 325.361 236.309C331.902 226.201 332.121 224.454 332.805 174.988L333.445 128.761L336.341 124.939C337.935 122.837 340.94 120.146 343.014 118.954L346.79 116.79L331.626 116.858C322.305 116.899 317.429 117.29 318.957 117.872C322.872 119.365 329.006 126.631 329.821 130.733C332.157 142.513 329.807 220.03 326.911 226.817C315.756 252.978 274.854 255.841 258.919 231.577C252.712 222.126 252.399 219.53 251.89 173.276C251.388 128.014 251.773 123.453 256.51 118.995C258.839 116.804 258.7 116.776 242.19 116.81C230.337 116.838 226.123 117.18 227.622 118.002ZM373.509 118.194C372.971 119.735 369.224 137.185 369.224 138.143C369.224 138.451 371.712 136.102 374.761 132.918C383.427 123.844 393.302 119.81 408.24 119.248L420.159 118.796L420.137 175.146C420.108 238.96 419.635 244.822 414.134 249.465L410.416 252.608H428.898C445.991 252.608 447.177 252.471 444.674 250.828C437.674 246.212 437.776 247.184 437.383 180.275L437.019 118.79L448.996 119.242C463.76 119.803 473.525 123.734 482.439 132.699C488.711 139.013 488.842 138.753 485.837 125.912L483.829 117.351L428.92 117.05C385.603 116.817 373.902 117.057 373.509 118.194ZM515.904 119.002C520.582 123.405 520.917 128.302 520.561 186.678C520.182 247.479 520.175 247.568 513.612 250.924C510.854 252.341 512.658 252.519 529.911 252.533C548.633 252.547 549.201 252.478 546.007 250.616C540.127 247.178 539.007 242.219 539.007 219.482V198.958H561.637L578.336 224.27C587.519 238.192 595.312 250.259 595.654 251.095C596.113 252.225 599.664 252.608 609.662 252.608H623.05L618.321 249.328C610.906 244.192 608.17 240.809 594.374 219.763C579.326 196.8 579.828 198.512 587.403 196.143C631.731 182.288 625.83 126.275 579.166 117.94C565.762 115.55 513.175 116.434 515.904 119.002ZM650.628 119.105C655.234 123.44 655.431 126.145 655.431 184.233C655.431 245.472 655.315 246.732 649.231 250.746C646.568 252.499 647.456 252.608 664.956 252.608H683.511L679.815 249.677C673.877 244.972 673.637 242.459 673.637 184.124C673.637 126.652 673.95 123.063 679.291 119.111L682.441 116.776H648.154L650.628 119.105ZM710.056 119.105C714.655 123.44 714.858 126.152 714.858 184.124C714.858 244.322 714.742 245.616 709.059 250.033L705.763 252.595L800.554 252.608L803.188 241.836C806.819 226.934 806.63 226.351 800.416 233.522C788.642 247.13 779.481 250.321 752.231 250.321H733.05V190.109C733.05 128.001 733.319 124.22 738.085 119.447L740.748 116.776H707.582L710.056 119.105ZM798.546 121.207C801.005 123.645 804.934 128.912 807.277 132.911C809.613 136.904 818.432 152.025 826.866 166.503L842.198 192.828V216.414C842.198 242.486 841.099 247.808 835.074 250.883C832.2 252.355 833.8 252.513 851.293 252.513C868.786 252.513 870.387 252.355 867.513 250.883C861.393 247.753 860.389 242.637 860.389 214.483V188.966L870.823 170.276C895.855 125.46 897.477 122.995 904.572 118.92L908.29 116.79L894.989 116.783C882.8 116.776 881.898 116.92 884.278 118.495C887.472 120.598 889.961 127.247 888.855 130.74C887.319 135.63 859.727 185.658 858.33 186.103C857.777 186.274 850.1 173.68 841.266 158.113C824.479 128.508 823.089 124.707 827.106 119.317L828.998 116.776H794.063L798.546 121.207ZM934.667 118.009C940.976 121.467 941.034 122.097 941.034 184.124C941.034 246.904 941.107 246.205 934.107 250.828C931.604 252.471 932.79 252.608 949.883 252.608H968.365L964.399 249.28L960.441 245.945L960.081 214.884L959.721 183.823L972.818 184.35C987.204 184.932 993.746 187.082 998.526 192.801L1001.07 195.842V183.045V170.249L997.784 173.927C992.385 179.967 986.491 181.782 972.265 181.816L959.837 181.836V117.92L974.084 117.927C1003.37 117.947 1017.05 122.707 1028.11 136.712C1030.11 139.246 1031.41 140.417 1030.99 139.321C1030.59 138.225 1029.31 132.699 1028.16 127.049L1026.07 116.776L979.309 116.81C946.95 116.838 933.198 117.208 934.667 118.009ZM575.899 120.961C605.863 131.493 607.319 179.385 578.089 192.897C571.736 195.835 569.779 196.143 555.081 196.506L547.044 196.704L539.007 196.903V117.591L554.469 118.228C565.1 118.659 571.802 119.516 575.899 120.961Z" fill="#1F1D1D"/>
<path fill-rule="evenodd" clip-rule="evenodd" d="M616.782 278.879C608.849 281.792 605.471 286.275 602.98 297.202C602.436 299.581 601.927 301.585 601.847 301.656C601.765 301.727 598.275 301.744 594.091 301.692L586.482 301.598L587.956 295.145C590 286.213 590.188 286.993 586.057 287.284C578.814 287.797 575.129 289.088 571.887 292.255C569.604 294.486 567.295 299.679 568.586 299.679C570.431 299.679 572.536 297.869 572.993 295.888C573.943 291.785 577.557 288.828 581.924 288.579C584.346 288.441 584.501 288.477 584.313 289.119C584.203 289.496 583.516 292.496 582.789 295.787L581.467 301.771H579.951C578.863 301.771 578.216 301.995 577.667 302.556L576.901 303.341L578.891 303.445C581.228 303.571 581.158 303.205 579.908 308.576C578.65 313.989 578.371 314.807 577.36 316.073C575.14 318.855 569.318 319.293 565.855 316.935L564.184 315.796L562.506 317.087L560.827 318.376L562.747 319.402C565.548 320.9 571.35 320.925 574.704 319.454C580.3 317.002 584.177 312.034 585.581 305.521L586.015 303.514H593.844H601.672L601.456 304.299C601.212 305.178 599.084 314.826 598.683 316.853C598.451 318.039 598.31 318.163 597.173 318.178C596.486 318.186 595.131 318.571 594.163 319.033L592.405 319.874H599.048C605.319 319.874 605.788 319.826 607.448 319.033L609.206 318.192L606.374 318.178C603.223 318.159 603.249 318.188 603.924 315.612C604.133 314.809 605.38 309.208 606.69 303.167C610.87 283.924 611.54 282.256 615.737 280.693C617.574 280.007 618.885 280.009 621.491 280.701L623.566 281.25L625.076 279.936C626.972 278.283 626.651 278.067 622.293 278.071C619.724 278.073 618.477 278.258 616.782 278.879ZM696.092 278.879C687.053 282.197 685.163 285.395 680.911 304.558C677.7 319.038 677.779 320.253 681.947 320.253C685.088 320.253 690.937 316.688 691.671 314.326C691.9 313.589 691.61 313.731 689.816 315.242C685.782 318.632 683.241 319.061 683.241 316.353C683.241 313.131 689.259 287.623 690.71 284.687C692.636 280.796 696.425 279.331 700.982 280.716L702.841 281.281L704.355 279.963C705.189 279.237 705.778 278.511 705.668 278.35C705.199 277.672 698.347 278.05 696.092 278.879ZM735.398 278.546C726.355 281.107 723.797 285.185 719.62 303.724C718.328 309.459 716.917 315.401 716.486 316.926C715.555 320.222 715.384 319.956 718.237 319.638L720.553 319.381L721.416 315.589C722.832 309.379 729.346 300.815 734.238 298.733C737.443 297.369 737.658 298.765 735.645 307.846C733.244 318.686 733.46 320.253 737.365 320.253C740.49 320.253 746.414 316.663 747.147 314.326C747.377 313.591 747.086 313.733 745.293 315.242C738.692 320.791 737.726 319.406 740.284 308.048C742.426 298.532 742.318 296.884 739.489 295.838C735.903 294.513 731.285 297.453 725.928 304.475C724.721 306.057 723.624 307.352 723.488 307.352C722.982 307.352 727.539 288.092 728.645 285.556C730.663 280.932 734.391 279.233 739.269 280.716L741.13 281.281L742.644 279.963C743.476 279.237 744.067 278.511 743.955 278.35C743.643 277.9 737.157 278.05 735.398 278.546ZM474.199 285.683C472.145 287.34 470.052 289.316 469.548 290.077L468.632 291.46L469.572 290.914C470.087 290.615 471.588 289.77 472.903 289.037C474.968 287.887 478.723 283.265 478.02 282.739C477.973 282.704 476.252 284.028 474.199 285.683ZM762.933 285.96C760.898 287.598 758.92 289.473 758.538 290.123L757.846 291.31L761.13 289.496C764.157 287.824 764.515 287.502 765.652 285.443C767.284 282.49 767.232 282.501 762.933 285.96ZM885.143 285.88C881.948 288.475 879.608 290.96 880.368 290.96C882.023 290.96 886.561 287.523 887.797 285.332C889.484 282.342 889.513 282.336 885.143 285.88ZM337.479 286.796C319.804 289.546 309.628 313.261 323.414 319.567C328.32 321.812 344.002 319.759 344.64 316.79C344.888 315.642 345.228 315.635 341.192 316.857C334.351 318.925 327.382 318.272 324.865 315.324C320.905 310.691 322.996 297.894 328.597 292.469C332.467 288.721 339.809 287.713 345.308 290.171L347.833 291.301L349.286 289.824C350.085 289.01 350.685 288.188 350.622 287.997C350.289 286.985 341.452 286.177 337.479 286.796ZM861.146 286.79C854.163 288.023 850.965 292.094 848.527 302.857C847.686 306.575 846.868 310.166 846.711 310.838C845.721 315.077 843.769 317.115 840.698 317.115C838.668 317.115 838.396 317.215 837.034 318.46L835.564 319.803L839.788 320.021C850.457 320.573 858.893 320.68 860.525 320.282C862.604 319.774 866.235 317.192 866.413 316.091L866.544 315.282L865.363 316.031C862.491 317.857 857.069 318.221 847.454 317.232L845.428 317.025L847.578 315.271C851.01 312.472 851.962 310.239 854.165 299.853C855.288 294.572 856.106 291.942 857.023 290.682C858.464 288.703 862.564 288.221 865.072 289.74C866.927 290.864 866.842 290.881 868.565 289.039C870.159 287.336 870.183 287.376 867.257 286.794C865.22 286.388 863.422 286.388 861.146 286.79ZM449.803 288.703C448.73 288.968 447.738 289.194 447.602 289.203C447.464 289.211 447.229 289.962 447.082 290.874C446.932 291.785 446.634 293.276 446.418 294.187L446.027 295.844H443.762C442.227 295.844 441.343 296.011 441.013 296.367C440.588 296.821 440.835 296.89 442.895 296.89C445.978 296.89 445.905 296.323 443.952 305.105C441.348 316.803 441.306 318.385 443.558 319.703C446.144 321.216 453.927 318.598 455.11 315.815C455.673 314.497 455.291 314.466 453.568 315.683C450.882 317.581 447.996 318.328 446.95 317.395C446.186 316.713 446.383 315.206 448.437 305.99C449.51 301.167 450.389 297.122 450.389 297.003C450.389 296.882 452.138 296.88 454.276 296.995C457.743 297.183 458.256 297.135 459.06 296.536C459.961 295.867 459.951 295.867 455.371 295.854C452.426 295.848 450.781 295.712 450.781 295.476C450.781 295.275 451.029 294.057 451.336 292.774C452.194 289.173 452.347 288.169 452.04 288.194C451.885 288.207 450.877 288.437 449.803 288.703ZM704.474 288.757L702.458 289.288L702.006 291.607C701.08 296.333 701.441 295.844 698.886 295.844C697.351 295.844 696.464 296.011 696.134 296.367C695.712 296.821 695.956 296.89 698.016 296.89C701.033 296.89 700.935 296.432 699.402 303.341C696.521 316.328 696.422 317.753 698.291 319.42C700.738 321.605 709.54 318.588 710.368 315.282L710.607 314.319L708.743 315.594C702.276 320.017 700.752 318.703 702.597 310.3C703.143 307.814 703.757 304.918 703.961 303.864C704.163 302.809 704.62 300.786 704.971 299.367L705.614 296.79L709.449 296.999C712.862 297.183 713.38 297.133 714.184 296.536C715.082 295.867 715.072 295.867 710.492 295.854C707.967 295.848 705.902 295.704 705.902 295.532C705.902 295.258 706.779 291.115 707.292 288.956C707.512 288.037 707.271 288.021 704.474 288.757ZM356.67 295.896C354.024 296.576 349.403 299.853 349.101 301.265L348.906 302.173L350.128 301.144C353.494 298.309 356.288 297.258 357.371 298.422C357.985 299.083 356.136 308.308 353.609 317.188C352.809 319.992 352.734 319.902 355.65 319.663L357.99 319.473L358.855 315.635C360.84 306.814 369.971 297.47 374.495 299.631C375.205 299.97 375.456 299.8 376.767 298.101C378.511 295.842 378.4 295.664 375.245 295.683C370.803 295.71 366.797 298.825 362.261 305.78C360.803 308.015 360.665 307.343 361.684 302.985C363.217 296.43 361.893 294.555 356.67 295.896ZM392.076 295.873C380.198 298.371 372.643 315.466 381.612 319.55C385.775 321.446 392.922 319.613 397.939 315.365C399.657 313.911 399.545 313.415 397.744 314.503C389.481 319.498 383.614 318.665 383.129 312.428L382.995 310.706L386.387 310.107C394.174 308.735 399.599 304.471 399.599 299.721C399.599 296.214 396.933 294.852 392.076 295.873ZM420.841 295.99C411.139 297.972 402.29 310.746 405.818 317.68C408.849 323.639 417.356 319.41 424.144 308.572C424.817 307.496 424.737 309.08 423.98 311.884C422.379 317.803 423.181 320.257 426.716 320.251C429.81 320.245 436.324 316.401 436.324 314.579C436.324 313.874 436.285 313.88 435.251 314.74C429.763 319.303 427.206 319.247 428.125 314.583C428.847 310.917 430.769 302.466 431.624 299.194C432.072 297.488 432.36 296.024 432.267 295.94C431.779 295.505 423.031 295.543 420.841 295.99ZM466.407 295.907C463.756 296.584 459.297 299.809 458.875 301.355C458.685 302.048 458.934 301.949 460.675 300.635C463.622 298.415 464.508 297.936 465.666 297.936C467.853 297.936 467.863 298.327 465.882 307.283C463.282 319.04 463.432 320.264 467.483 320.247C470.739 320.232 476.412 316.769 477.178 314.326C477.408 313.593 477.103 313.748 475.284 315.275C468.739 320.778 467.849 319.339 470.49 307.521C473.092 295.884 472.549 294.337 466.407 295.907ZM485.57 295.902C482.732 296.631 478.496 299.692 477.933 301.422C477.654 302.276 477.675 302.272 478.962 301.204C482.673 298.129 485.449 297.16 486.33 298.629C486.75 299.328 484.797 309.009 482.727 316.495C481.733 320.084 481.628 319.904 484.579 319.663L486.918 319.473L487.774 315.673C489.478 308.101 499.345 297.001 502.704 298.878C503.726 299.449 503.641 300.711 502.146 307.237C499.586 318.422 499.811 320.253 503.733 320.253C506.855 320.253 512.781 316.663 513.513 314.326C513.745 313.591 513.454 313.733 511.661 315.242C505.076 320.774 504.077 319.567 506.452 308.942C508.778 298.545 508.707 296.892 505.892 295.852C502.284 294.519 497.938 297.225 492.572 304.142C489.633 307.931 489.527 307.866 490.601 302.964C492.066 296.273 490.84 294.553 485.57 295.902ZM532.196 295.988C521.558 298.162 512.252 313.12 518.222 318.45C518.963 319.109 519.518 319.68 519.457 319.715C519.397 319.751 518.478 320.226 517.418 320.768C503.086 328.099 512.078 342.815 526.992 336.435C534.5 333.224 538.091 326.488 539.901 312.237C540.304 309.051 541.34 304.161 542.655 299.229C543.105 297.543 543.382 296.082 543.269 295.982C542.754 295.522 534.458 295.528 532.196 295.988ZM630.303 295.967C622.094 297.859 615.193 306.795 616.226 314.194C617.241 321.437 626.522 322.419 635.284 316.209C638.526 313.911 638.165 313.275 634.741 315.255C627.366 319.51 622.216 318.477 621.62 312.618L621.414 310.58L623.702 310.325C632.425 309.352 639.598 303.238 638.004 298.133C637.34 296.007 634.094 295.095 630.303 295.967ZM659.41 295.946C648.433 298.208 639.009 313.926 645.425 319.274C648.993 322.249 654.875 319.192 660.568 311.407C663.513 307.383 663.489 307.381 662.526 311.551C660.99 318.198 661.595 320.253 665.088 320.253C668.22 320.253 674.286 316.625 674.748 314.474C674.933 313.61 674.863 313.633 673.33 314.96C668.065 319.504 665.501 319.234 666.6 314.25C666.909 312.853 667.531 309.984 667.983 307.875C668.433 305.764 669.265 302.269 669.828 300.108C670.393 297.947 670.756 296.091 670.637 295.984C670.149 295.547 661.485 295.519 659.41 295.946ZM755.244 295.984C752.373 296.813 748.46 299.71 747.902 301.422C747.64 302.23 747.731 302.198 749.128 301.02C752.523 298.154 755.413 297.152 756.252 298.549C756.679 299.265 756.7 299.135 754.653 308.222C752.258 318.864 752.455 320.253 756.374 320.253C759.733 320.253 765.647 316.64 766.243 314.227C766.473 313.29 766.43 313.304 765.073 314.648C761.998 317.686 758.582 318.975 757.893 317.359C757.502 316.437 757.455 316.711 759.51 307.525C762.016 296.327 761.247 294.249 755.244 295.984ZM782.957 296.036C771.109 298.882 764.264 315.531 773.259 319.628C777.49 321.557 787.915 318.293 790.315 314.286C790.826 313.434 790.753 313.461 787.957 315.154C780.659 319.567 775.214 318.406 774.401 312.262L774.183 310.626L777.225 310.206C783.236 309.371 789.445 305.665 790.601 302.225C792.354 297.003 789.281 294.515 782.957 296.036ZM802.127 295.984C799.256 296.813 795.343 299.71 794.785 301.422C794.523 302.23 794.614 302.198 796.011 301.02C801.318 296.541 803.967 296.827 802.969 301.771C801.811 307.498 799.242 317.983 798.665 319.318C798.414 319.902 798.58 319.931 800.887 319.707C803.958 319.408 803.541 319.891 804.567 315.447C806.6 306.661 815.758 297.474 820.313 299.65C820.855 299.907 821.263 299.61 822.46 298.081L823.94 296.191L822.913 295.842C818.895 294.48 814.343 297.137 809.537 303.655C806.431 307.871 806.733 307.498 806.555 307.322C806.476 307.243 806.743 305.764 807.151 304.037C808.885 296.697 807.477 294.44 802.127 295.984ZM876.976 296.141C873.94 297.229 869.993 300.244 869.993 301.47C869.993 302.048 870.436 301.822 872.396 300.238C875.757 297.524 878.589 297.103 878.589 299.319C878.589 299.901 877.796 303.916 876.831 308.241C874.376 319.215 874.54 320.257 878.713 320.251C881.932 320.245 888.354 316.315 888.354 314.351C888.354 313.648 888.038 313.813 885.806 315.675C879.876 320.63 878.971 319.284 881.32 309.007C883.385 299.974 883.626 297.696 882.635 296.605C881.627 295.499 879.297 295.306 876.976 296.141ZM895.396 295.953C893.287 296.551 889.276 300.321 889.069 301.895C888.978 302.594 888.926 303.167 888.955 303.167C888.98 303.167 889.562 302.472 890.244 301.625C896.266 294.141 901.604 300.625 901.779 315.633C901.854 322.013 902.281 321.973 908.519 315.022C910.844 312.434 913.781 309.216 915.047 307.875C920.798 301.776 922.188 299.217 921.055 296.817L920.444 295.522L918.367 295.727C915.725 295.988 915.488 296.204 916.302 297.606C917.612 299.869 916.309 303.142 911.766 308.988C910.453 310.676 908.753 312.886 907.989 313.895C906.238 316.211 906.306 316.322 905.922 310.599C905.136 298.93 901.707 294.157 895.396 295.953ZM939.34 295.967C932.591 297.522 926.754 303.6 925.484 310.396C923.58 320.58 933.733 323.714 944.321 316.209C947.565 313.911 947.202 313.275 943.777 315.255C936.405 319.51 931.253 318.477 930.657 312.618L930.451 310.58L932.741 310.325C940.139 309.501 946.475 305.102 947.195 300.29C947.751 296.58 944.485 294.783 939.34 295.967ZM963.257 295.875C959.139 296.741 956.143 299.365 955.423 302.74C954.992 304.759 956.082 306.347 960.261 309.791C967.561 315.803 964.525 320.22 955.071 317.343L952.439 316.541L951.065 317.552C949.251 318.887 949.307 319.019 951.965 319.684C960.597 321.845 968.703 317.947 967.953 311.997C967.706 310.053 966.619 308.689 963.243 306.09C959.124 302.92 958.114 300.809 959.818 298.932C960.845 297.802 966.342 297.712 968.344 298.794L969.61 299.476L970.984 298.288C972.575 296.911 972.435 296.683 969.579 296.003C967.235 295.446 965.468 295.411 963.257 295.875ZM424.137 297.986C426.873 298.581 426.901 298.629 426.31 301.424C425.616 304.692 424.416 306.603 419.261 312.641C413.675 319.184 409.247 318.688 410.555 311.668C412.604 300.675 416.849 296.4 424.137 297.986ZM536.778 298.373L538.192 298.907L537.517 301.753C536.192 307.36 527.625 317.115 524.024 317.115C521.56 317.115 521.04 315.121 522.202 310.141C524.687 299.487 529.479 295.62 536.778 298.373ZM662.868 298.091C665.564 298.731 665.449 298.518 664.743 301.608C664.075 304.533 663.189 305.975 658.96 311.013C654.607 316.2 653.438 317.115 651.166 317.115C648.543 317.115 648.025 314.369 649.614 308.873C652.423 299.154 655.796 296.411 662.868 298.091ZM393.923 298.687C397.719 301.353 392.247 308.118 385.531 309.063C383.152 309.4 382.981 309.214 383.56 306.91C385.344 299.805 390.119 296.017 393.923 298.687ZM631.824 298.271C633.697 298.907 633.822 302.705 632.04 304.935C630.362 307.04 626.468 308.904 623.252 309.145L621.707 309.258L621.843 307.869C622.467 301.412 627.324 296.744 631.824 298.271ZM785.472 298.832C789.005 301.987 782.605 309.095 776.234 309.095H774.565L774.799 307.787C776.147 300.309 781.806 295.561 785.472 298.832ZM941.489 298.633C943.294 300.244 942.336 304.217 939.63 306.337C937.474 308.028 931.339 309.953 930.765 309.122C930.219 308.333 932.471 302.159 933.925 300.457C936.021 298.003 939.771 297.099 941.489 298.633ZM534.807 316.198C531.863 333.075 530.011 335.929 522.259 335.538C512.385 335.04 511.764 323.053 521.457 320.067C526.851 318.406 529.769 316.244 533.532 311.126C536.288 307.375 536.324 307.507 534.807 316.198Z" fill="#080808"/>
<path d="M662.17 104.044C640.548 96.0524 625.529 86.8512 603.455 64.7385C620.001 90.0501 634.289 100.097 659.995 110.98L662.17 104.044Z" fill="#396A13"/>
<path d="M662.743 24.3473C649.623 48.8459 653.755 57.3361 666.519 69.3627C674.408 61.7484 677.484 54.8272 681.742 39.3055C690.068 55.6862 684.058 63.4217 677.5 78L677.952 77.6648C695.524 64.6373 705.06 57.5679 704.555 44.2678C703.365 29.6939 695.935 15.637 674.689 0C674.244 6.06057 671.656 11.3697 662.743 24.3473Z" fill="#FE8E0A"/>
<path d="M681.742 39.3055C676.589 55.1837 675.184 60.2622 666.519 69.3627L669.781 72.8308C679.199 63.7342 681.836 56.201 681.742 39.3055Z" fill="#396A13"/>
<path d="M715.448 77.455C701.607 87.2966 689.148 94.3255 674.13 98.2638L673.5 102C693.232 98.5569 704.135 89.7429 715.448 77.455Z" fill="#396A13"/>
<path d="M648.507 58.9272C618.154 43.0542 603.498 33.9047 590.573 16.1847C581.377 44.4789 584.038 68.2869 594.652 81.0784C606.691 93.87 624.3 102.524 641.5 109C623.147 94.795 612.443 85.4898 603.983 65.3306C626.622 87.1865 639.206 96.05 662.17 104.044C667.167 85.5073 667.584 68.9039 648.507 58.9272Z" fill="#81BA38"/>
<path d="M706.83 66.9866C684.641 76.5669 677.596 84.6853 674.13 98.3558C691.106 93.9281 699.123 89.3362 713.623 78.684C704.921 95.3432 696.824 99.5408 675.5 109.5C698.229 107.28 713.859 108.725 725.762 96.492C735.109 83.7566 738.256 75.2812 736.889 55.4901L706.83 66.9866Z" fill="#81BA38"/>
</svg>
